<svg version="1.1"
	 baseProfile="full"
	 viewBox="0 0 500 500"
	 xmlns="http://www.w3.org/2000/svg">

	<path d="M 0 0 L 500 0 L 500 500 L 0 500 L 0 0" stroke="none" stroke-width="0" fill="#cccc99"/>

	<path d="M 155 450 Q 225 470 315 450 L 370 200" stroke="#333" stroke-width="5" fill="#3D3D3D"/>
	<path d="M 100 200 L 155 450 Q 315 450 370 200 L 370 200" stroke="#3B3B3B" stroke-width="0" fill="#404040"/>
	<path d="M 370 200 Q 235 180 100 200 Q 235 225 370 200" stroke="#3D3D3D" stroke-width="6" fill="#B08F70"/>
	<path d="M 360 250 Q 530 220 325 410 M 330 380 Q 475 240 352 280" stroke="#3D3D3D" stroke-width="3" fill="#404040"/>

	<path d="M 175 50 C 125,100 225,150 175,190" stroke="#aaa" stroke-width="15" fill="none"/>
	<path d="M 300 80 C 250,120 350,150 300,200" stroke="#aaa" stroke-width="15" fill="none"/>
	<path d="M 235 0 C 185,75 285,125 235,175" stroke="#aaa" stroke-width="15" fill="none"/>


</svg>