<?xml version="1.0" encoding="UTF-8" standalone="no"?>
<svg width="250px" height="250px" viewBox="0 0 250 250" xmlns="http://www.w3.org/2000/svg" version="1.1">
	
	<path d="M 0 0 L 250 0 L 250 250 L 0 250 L 0 0" fill="#555" />
	<path id="wifi" d="M125,51 C92,51 60,64 37,88 C36,88 36,88 36,89 L54,107 C72,88 97,76 125,76 C153,76 178,88 196,107 L214,89 C214,88 214,88 213,88 C190,64 158,51 125,51" fill="#fff"/>
	<path id="wifi"  d="M125,153 C118,153 112,156 107,161 L125,179 L143,161 C138,156 132,153 125,153" fill="#fff"/>
	<path id="wifi"  d="M72,125 L89,142 C98,133 111,127 125,127 C139,127 152,133 161,142 L178,125 C165,111 146,103 125,103 C104,103 85,111 72,125" fill="#fff"/>

</svg>